# xmcd
#
# Track frame offsets: 
#        150
#        17335
#        30502
#        49067
#        67952
#        82977
#        92365
#        109282
#        128157
#        143492
#        167462
#        181532
#        200010
#        219480
#        283075
#
# Disc length: 3801 seconds
#
# Revision: 0
# Processed by: cddbd v1.5.1PL0 Copyright (c) Steve Scherf et al.
# Submitted via: ExactAudioCopy v0.90b4
#
DISCID=bb0ed70f
DTITLE=The Amos Garrett, Doug Sahm, Gene Taylor Band - The Return Of T
DTITLE=he Formerly Brothers
DYEAR=1988
DGENRE=Folk/Rock
TTITLE0=Smack Dab In The Middle
TTITLE1=Big Mamou
TTITLE2=Teardrops On Your Letter
TTITLE3=Drunk
TTITLE4=Don't Tell Me
TTITLE5=Coming Back Home
TTITLE6=Sure Is A Good Thing
TTITLE7=Amarillo Highway
TTITLE8=Banks Of The Old Pontchartrain
TTITLE9=Just Like A Women
TTITLE10=Gene's Boogie
TTITLE11=Queen Of The Okanagan
TTITLE12=Louis Riel
TTITLE13=Doug Sahm Interview
TTITLE14=Hidden Track
EXTD=
EXTT0=
EXTT1=
EXTT2=
EXTT3=
EXTT4=
EXTT5=
EXTT6=
EXTT7=
EXTT8=
EXTT9=
EXTT10=
EXTT11=
EXTT12=
EXTT13=
EXTT14=
PLAYORDER=
